<?xml version="1.0" encoding="UTF-8" standalone="no"?>
<!-- Created with Inkscape (http://www.inkscape.org/) -->

<svg
   width="38.977722mm"
   height="41.082676mm"
   viewBox="0 0 38.977722 41.082676"
   version="1.1"
   id="svg5"
   inkscape:version="1.1 (c68e22c387, 2021-05-23)"
   sodipodi:docname="bassghl.svg"
   xmlns:inkscape="http://www.inkscape.org/namespaces/inkscape"
   xmlns:sodipodi="http://sodipodi.sourceforge.net/DTD/sodipodi-0.dtd"
   xmlns="http://www.w3.org/2000/svg"
   xmlns:svg="http://www.w3.org/2000/svg">
  <sodipodi:namedview
     id="namedview7"
     pagecolor="#505050"
     bordercolor="#ffffff"
     borderopacity="1"
     inkscape:pageshadow="0"
     inkscape:pageopacity="0"
     inkscape:pagecheckerboard="1"
     inkscape:document-units="mm"
     showgrid="false"
     fit-margin-top="0"
     fit-margin-left="0"
     fit-margin-right="0"
     fit-margin-bottom="0"
     inkscape:zoom="2.8578563"
     inkscape:cx="71.032262"
     inkscape:cy="95.001276"
     inkscape:window-width="1920"
     inkscape:window-height="991"
     inkscape:window-x="2391"
     inkscape:window-y="-9"
     inkscape:window-maximized="1"
     inkscape:current-layer="layer1" />
  <defs
     id="defs2" />
  <g
     inkscape:label="Layer 1"
     inkscape:groupmode="layer"
     id="layer1"
     transform="translate(-74.374836,-78.799394)">
    <path
       style="fill:#000000;stroke-width:0.352778"
       d="M 89.145449,118.7002 C 80.823237,114.54154 72.251637,96.622096 74.846952,88.808333 c 1.31878,-3.970474 6.169035,-7.686922 12.077379,-9.254143 3.533039,-0.937158 9.75737,-1.013301 13.325419,-0.163011 5.51522,1.31431 10.3274,4.665967 12.2003,8.497429 1.34459,2.750678 1.18632,6.615359 -0.47185,11.52177 -3.14752,9.313282 -8.45911,16.865402 -13.697977,19.476042 -2.788789,1.38971 -6.116827,1.32186 -9.134774,-0.18622 z m 8.663752,-1.00402 c 2.105716,-1.01078 5.469819,-4.29431 7.543599,-7.36293 3.42584,-5.06929 6.31323,-12.567789 6.62607,-17.207762 0.16777,-2.488382 0.0893,-3.093236 -0.58093,-4.477742 -3.89047,-8.036634 -17.907659,-11.217274 -28.180598,-6.394457 -3.639534,1.708645 -6.505014,4.616094 -7.326413,7.433719 -0.532101,1.825253 -0.5527,2.406456 -0.16695,4.710564 1.746721,10.433278 9.333799,21.915518 15.890182,24.048118 1.481449,0.48187 4.353662,0.13437 6.19504,-0.74951 z m -4.605256,-4.92026 c -0.873634,-0.36105 -5.820833,-5.44021 -5.820833,-5.9761 0,-0.21471 -0.38654,-0.39038 -0.858979,-0.39038 -1.525548,0 -2.659234,-0.66156 -3.247438,-1.89504 -0.977996,-2.05087 0.12922,-4.2416 2.370283,-4.689815 1.373915,-0.274783 1.244335,-1.243428 -0.206274,-1.541941 -2.325665,-0.478586 -3.349259,-1.622014 -3.349259,-3.741361 0,-1.100757 1.780087,-2.948508 2.840534,-2.948508 0.851622,0 0.842145,0.4993 0.101966,-5.372044 l -0.232499,-1.844265 2.260972,2.053396 c 2.965013,2.692801 4.388366,3.399024 6.850548,3.399024 2.371301,0 3.501846,-0.532571 6.462944,-3.044528 1.22819,-1.041898 2.35331,-1.894361 2.50027,-1.894361 0.14696,0 0.0583,1.389062 -0.19698,3.086806 -0.2553,1.697743 -0.46761,3.173977 -0.4718,3.28052 -0.004,0.106542 0.5626,0.39991 1.25954,0.651927 1.43481,0.518833 2.41727,2.28791 2.06036,3.709986 -0.33312,1.327256 -1.75488,2.443538 -3.15035,2.473471 -1.03257,0.02215 -1.2336,0.154621 -1.23447,0.813486 -7e-4,0.547045 0.26959,0.854952 0.88649,1.009783 1.24533,0.312554 2.28748,1.778084 2.28748,3.216784 0,1.5825 -1.60546,3.27668 -3.10507,3.27668 -0.81972,0 -1.13396,0.2204 -1.469617,1.03074 -0.43253,1.04422 -4.983478,5.69082 -5.533378,5.64968 -0.164386,-0.0123 -0.616384,-0.15357 -1.00444,-0.31394 z m 3.469901,-3.15718 c 2.455166,-2.54311 2.803816,-3.46281 1.810547,-4.77603 -0.871466,-1.15218 -0.653436,-2.96252 0.484855,-4.02584 0.978247,-0.913819 1.851542,-3.579651 1.172652,-3.579651 -0.569781,0 -1.208168,-2.058006 -0.955396,-3.079958 0.132908,-0.537342 0.680852,-1.38116 1.217656,-1.87515 0.76696,-0.705796 1.02791,-1.339821 1.21836,-2.960272 0.1333,-1.134159 0.1864,-2.118072 0.118,-2.186472 -0.0684,-0.0684 -0.74711,0.406951 -1.50825,1.056337 -2.354139,2.008509 -3.598204,2.500508 -6.322769,2.500508 -2.803741,0 -4.171417,-0.558623 -6.25533,-2.554969 -0.724042,-0.693618 -1.391442,-1.186122 -1.483111,-1.094453 -0.09167,0.09167 -0.02421,1.174518 0.149904,2.406333 0.231878,1.640463 0.557884,2.491537 1.218528,3.1811 1.035363,1.080686 1.215161,2.999713 0.384006,4.098598 -0.830678,1.098255 -0.676584,3.079681 0.311711,4.008139 1.154103,1.08422 1.407443,2.31467 0.748523,3.63551 -0.99017,1.98484 -0.739462,2.63702 2.015352,5.24258 1.406702,1.33049 2.730032,2.42352 2.940734,2.42896 0.210702,0.005 1.441015,-1.08594 2.734028,-2.42527 z m -8.772146,-4.9615 c 1.361204,-1.50411 0.323049,-3.89224 -1.692014,-3.89224 -0.58524,0 -1.354386,0.26273 -1.709213,0.58384 -0.803851,0.72748 -0.83623,2.50084 -0.0613,3.35713 0.781606,0.86366 2.660751,0.83722 3.462523,-0.0487 z m 14.97803,-0.23565 c 0.40214,-0.51124 0.73116,-1.12483 0.73116,-1.36354 0,-0.23871 -0.32902,-0.8523 -0.73116,-1.36353 -1.93678,-2.462218 -5.458444,0.30284 -3.658558,2.87254 0.803628,1.14733 2.700978,1.07189 3.658558,-0.14547 z M 87.030334,96.531664 c 1.463404,-1.463404 0.446993,-3.96875 -1.610108,-3.96875 -1.190513,0 -2.358642,1.168128 -2.358642,2.358642 0,2.057101 2.505347,3.073511 3.96875,1.610108 z m 16.933336,0 c 1.79725,-1.797255 -0.30292,-4.88387 -2.60833,-3.833454 -0.75364,0.343379 -1.625006,1.62569 -1.625006,2.391367 0,0.158732 0.329026,0.706887 0.731156,1.218123 0.89456,1.137249 2.48705,1.239088 3.50218,0.223964 z"
       id="path2644" />
    <path
       style="fill:#ffffff;stroke-width:0.349913"
       d="M 24.910995,113.05275 C 20.851159,109.82655 13.155743,102.54806 10.938666,99.837422 7.0754694,95.114214 6.720877,92.742353 9.0926463,87.489412 11.840625,81.403249 11.286512,77.597511 6.9767013,72.956781 5.0723757,70.906237 4.1053323,68.958141 3.6729355,66.301394 3.3234169,64.153869 3.7093806,61.017784 4.5037239,59.550954 7.4713987,54.07086 7.9130829,52.256663 7.1830248,48.54585 6.6753782,45.965531 5.647483,43.94596 3.395748,41.104746 1.518539,38.736106 0.47545168,35.994063 -0.35082365,31.255849 -1.0616224,27.179827 -1.4319766,21.34467 -0.97988057,21.34467 c 0.5413009,0 2.81325997,1.762152 5.75877297,4.466557 5.2085575,4.782206 8.6618726,6.875673 13.5412986,8.208997 3.762506,1.028121 15.06464,1.105664 18.770547,0.128784 4.805301,-1.266683 8.188225,-3.177601 13.920483,-7.863292 3.68585,-3.012905 5.849233,-4.591134 6.293381,-4.591134 0.398823,0 0.100316,4.473927 -0.639756,9.588431 -0.646946,4.470916 -1.595003,6.471331 -4.660979,9.834735 -3.354907,3.680362 -4.421881,5.887828 -4.395925,9.094713 0.03666,4.529233 1.692965,8.424857 4.177873,9.826351 0.623845,0.351851 0.642237,0.537984 0.259282,2.624345 -0.550189,2.997467 -3.098067,8.004346 -5.498629,10.805442 -2.394396,2.793905 -3.332259,5.152473 -3.332259,8.380088 0,2.74722 0.576435,4.6405 2.076815,6.821228 3.096552,4.500682 2.104724,7.503023 -5.09702,15.429085 -4.254486,4.68239 -11.185082,11.02225 -12.04928,11.02225 -0.346905,0 -1.802083,-0.93082 -3.233729,-2.0685 z"
       id="path2818"
       transform="matrix(0.26458333,0,0,0.26458333,86.511792,81.485743)" />
    <path
       style="fill:#ffffff;stroke-width:0.349913"
       d="m -7.5076307,58.583291 c -4.6252633,-2.006428 -6.5265023,-6.924967 -4.3585133,-11.275554 1.716262,-3.444089 5.581262,-5.686821 8.9274036,-5.180279 4.1735897,0.631803 7.3118689,4.404649 7.3072784,8.784828 -0.00304,2.899964 -2.5668572,6.52923 -5.4690671,7.741851 -1.5056957,0.629119 -4.8795227,0.591814 -6.4071016,-0.07085 z"
       id="path2857"
       transform="matrix(0.26458333,0,0,0.26458333,86.511792,81.485743)" />
    <path
       style="fill:#ffffff;stroke-width:0.349913"
       d="m -4.8987767,89.401712 c -1.7705512,-0.626317 -3.8538794,-2.828511 -4.3432791,-4.591087 -0.2071511,-0.746056 -0.3775165,-2.345652 -0.3785898,-3.554658 -0.00341,-3.844576 1.5161916,-6.194955 4.7994942,-7.423396 4.7777087,-1.787569 9.6825445,0.139237 11.5769217,4.547856 0.7332094,1.706334 0.6892579,5.127986 -0.085399,6.64834 -1.0621216,2.084537 -3.0019924,3.823621 -4.8907361,4.384517 -2.15796742,0.640848 -4.8472443,0.636188 -6.6784123,-0.01157 z"
       id="path2896"
       transform="matrix(0.26458333,0,0,0.26458333,86.511792,81.485743)" />
    <path
       style="fill:#ffffff;stroke-width:0.349913"
       d="m 58.085495,59.164344 c -1.957069,-0.492591 -3.959056,-1.756471 -5.159866,-3.257487 -1.751432,-2.189296 -2.713628,-3.915342 -2.70975,-4.860916 0.0059,-1.44981 1.655742,-4.453867 3.54043,-6.446646 3.086204,-3.263205 6.823182,-3.745426 10.446006,-1.347954 2.66353,1.762641 4.576133,5.926049 4.038601,8.79134 -0.87597,4.66932 -5.90025,8.192683 -10.155421,7.121663 z"
       id="path2935"
       transform="matrix(0.26458333,0,0,0.26458333,86.511792,81.485743)" />
    <path
       style="fill:#ffffff;stroke-width:0.349913"
       d="m 52.290519,89.807619 c -2.372052,-0.651218 -3.657279,-1.747974 -4.853446,-4.141716 -2.662899,-5.328931 0.185548,-11.208808 6.0687,-12.52725 3.744895,-0.839248 7.76655,1.696753 10.127196,6.386072 l 0.998611,1.983695 -0.777468,1.606033 c -2.525367,5.216713 -7.163301,7.901212 -11.563593,6.693166 z"
       id="path2974"
       transform="matrix(0.26458333,0,0,0.26458333,86.511792,81.485743)" />
    <path
       style="fill:#ffb300;fill-opacity:1;stroke-width:0.349913"
       d="M 20.294932,139.78116 C 16.993006,138.95881 10.864231,135.71342 6.6483398,132.55483 -13.590515,117.39165 -33.225969,84.074985 -39.535353,54.192157 c -2.198049,-10.410516 -2.446169,-15.361111 -1.043716,-20.824671 5.026941,-19.583537 27.393565,-34.610383 57.024962,-38.3117896 5.192577,-0.648631 18.294037,-0.55119 23.619102,0.1756651 25.627135,3.4980263 45.369142,15.1255785 53.545473,31.5369535 2.73519,5.490021 3.179404,8.699696 2.421375,17.495631 -1.713344,19.881112 -14.320622,50.808167 -28.094488,68.918914 -7.512299,9.87763 -18.215132,19.85951 -24.898103,23.22093 -4.678405,2.35316 -9.758149,3.53601 -16.09598,3.74805 -3.304526,0.11056 -5.123172,0.009 -6.64834,-0.37068 z M 31.560523,118.1199 c 2.72408,-2.04773 11.385096,-10.7147 14.885433,-14.89568 1.530661,-1.82829 3.24545,-4.234895 3.810647,-5.348005 1.265385,-2.492089 2.41722,-3.234376 5.459784,-3.518494 4.247943,-0.396682 8.182791,-3.257197 10.465792,-7.608318 0.877658,-1.672716 0.99498,-2.26587 0.997821,-5.044806 0.0028,-2.690975 -0.133638,-3.441237 -0.937349,-5.156124 -1.781706,-3.801646 -4.045606,-5.899512 -7.663023,-7.101028 -0.940478,-0.312374 -2.026873,-0.97085 -2.414216,-1.463279 -0.701945,-0.892375 -0.948371,-3.043648 -0.43647,-3.810296 0.497513,-0.745094 1.803352,-1.189598 3.494735,-1.189598 4.795545,0 9.721447,-3.032738 12.051666,-7.419876 0.64971,-1.223221 0.798738,-2.056377 0.800834,-4.477153 0.0021,-2.537696 -0.144556,-3.293287 -0.999816,-5.147775 -1.454096,-3.152961 -4.158809,-5.597888 -7.814322,-7.063752 -1.579295,-0.6333 -3.069195,-1.389727 -3.310887,-1.680949 -0.356372,-0.429399 -0.218979,-2.02717 0.726818,-8.452229 1.137384,-7.72657 1.795216,-16.145684 1.261554,-16.145684 -0.497485,0 -4.809616,3.24064 -9.762496,7.336682 -6.417569,5.307342 -8.453046,6.780577 -11.906711,8.617824 -4.498211,2.392914 -9.929492,3.284859 -15.862883,2.605063 -7.854671,-0.89992 -12.329297,-3.684196 -26.3319534,-16.384699 -3.3163109,-3.007918 -4.3979643,-3.813934 -4.4733984,-3.333451 -0.054719,0.348542 0.5357582,5.730377 1.3121723,11.959633 1.5295835,12.271998 1.6275556,13.686887 0.9917678,14.322674 -0.2309423,0.230943 -1.0472604,0.419896 -1.814045,0.419896 -0.766781,0 -2.0993532,0.341385 -2.9612723,0.758631 -2.137053,1.034531 -5.688038,4.60125 -6.908831,6.939446 -0.86678,1.660154 -0.998259,2.285021 -0.957131,4.548864 0.117904,6.489938 3.483156,10.660697 10.1288682,12.553312 4.449167,1.267065 5.72792617,1.812106 6.3000263,2.685246 1.0756454,1.641644 -0.028203,2.773352 -3.5426763,3.6321 -7.0066342,1.712049 -11.1915422,8.370988 -9.4740682,15.074943 1.480036,5.777148 5.2606975,9.035692 11.4048265,9.829805 4.5368656,0.586373 4.4774889,0.563702 5.2035996,1.986996 1.7026258,3.337421 16.8157579,18.978951 20.9640659,21.697021 0.879611,0.57635 4.129886,1.79154 4.846171,1.81185 0.221495,0.006 1.330728,-0.68617 2.464967,-1.53879 z"
       id="path3013"
       transform="matrix(0.26458333,0,0,0.26458333,86.511792,81.485743)" />
  </g>
</svg>
