<?xml version="1.0" encoding="UTF-8" standalone="no"?>
<!-- Created with Inkscape (http://www.inkscape.org/) -->

<svg
   width="32.63168mm"
   height="38.814198mm"
   viewBox="0 0 32.631679 38.814198"
   version="1.1"
   id="svg5"
   inkscape:version="1.1 (c68e22c387, 2021-05-23)"
   sodipodi:docname="bass.svg"
   xmlns:inkscape="http://www.inkscape.org/namespaces/inkscape"
   xmlns:sodipodi="http://sodipodi.sourceforge.net/DTD/sodipodi-0.dtd"
   xmlns="http://www.w3.org/2000/svg"
   xmlns:svg="http://www.w3.org/2000/svg">
  <sodipodi:namedview
     id="namedview7"
     pagecolor="#505050"
     bordercolor="#ffffff"
     borderopacity="1"
     inkscape:pageshadow="0"
     inkscape:pageopacity="0"
     inkscape:pagecheckerboard="1"
     inkscape:document-units="mm"
     showgrid="false"
     fit-margin-top="0"
     fit-margin-left="0"
     fit-margin-right="0"
     fit-margin-bottom="0"
     inkscape:zoom="2.8578563"
     inkscape:cx="25.193709"
     inkscape:cy="84.85381"
     inkscape:window-width="1920"
     inkscape:window-height="991"
     inkscape:window-x="2391"
     inkscape:window-y="-9"
     inkscape:window-maximized="1"
     inkscape:current-layer="layer1" />
  <defs
     id="defs2" />
  <g
     inkscape:label="Layer 1"
     inkscape:groupmode="layer"
     id="layer1"
     transform="translate(-86.511792,-81.485743)">
    <path
       style="fill:#000000;stroke-width:0.352778"
       d="m 97.933339,116.4944 c -3.24355,-3.21116 -3.837092,-3.96843 -3.837092,-4.89555 0,-1.0906 -0.0089,-1.09577 -1.581653,-0.9185 -3.080996,0.34727 -4.768347,-1.16629 -4.768347,-4.27723 0,-1.27567 0.198646,-1.77653 1.037133,-2.61502 1.055105,-1.0551 2.757485,-1.63279 3.721509,-1.26286 0.590667,0.22666 0.659734,-0.29275 0.315579,-2.37322 l -0.209682,-1.267564 -1.654547,0.158981 c -1.405202,0.135022 -1.821366,0.01861 -2.761498,-0.772458 -2.986014,-2.512565 -1.798525,-7.002458 1.986275,-7.510106 1.671405,-0.224182 1.616684,0.07669 0.91662,-5.03991 -0.278746,-2.037291 -0.511841,-3.923667 -0.517989,-4.191946 -0.0061,-0.268279 1.272982,0.739098 2.84251,2.238616 4.002099,3.823583 7.415613,5.15136 11.333293,4.408387 2.66138,-0.504721 4.32572,-1.440419 7.50885,-4.221515 1.55223,-1.356173 2.91011,-2.466018 3.01752,-2.466322 0.10741,-3.04e-4 -0.0819,1.785385 -0.42068,3.968197 -0.82419,5.310274 -0.82951,5.203472 0.25915,5.203472 2.06061,0 4.02318,2.156826 4.02318,4.421398 0,1.353308 -1.22243,3.175961 -2.47922,3.696541 -0.58585,0.242667 -1.69147,0.355395 -2.46633,0.251465 -1.33121,-0.178552 -1.4047,-0.139534 -1.40927,0.748193 -0.003,0.515111 -0.0953,1.273601 -0.20582,1.685541 -0.17183,0.64026 -0.008,0.7851 1.12625,0.99796 1.91619,0.35948 3.6705,2.2138 3.6705,3.87975 0,2.81689 -1.63269,4.42749 -4.48822,4.42749 -1.84201,0 -1.86178,0.0115 -1.86178,1.08067 0,0.8593 -0.55195,1.67227 -2.69449,3.96875 -5.47506,5.86843 -5.17733,5.84906 -10.401751,0.67679 z m 8.832201,-0.22733 c 3.86286,-3.87899 4.36906,-5.11771 2.95195,-7.22381 -0.44252,-0.65766 -0.80398,-1.68954 -0.80326,-2.29305 0.002,-1.27433 1.06239,-3.17961 2.07093,-3.71936 0.51154,-0.27377 0.76511,-0.90399 0.94589,-2.35096 0.20712,-1.657705 0.1258,-2.192591 -0.50362,-3.312488 -1.26454,-2.24994 -0.78571,-4.851633 1.12309,-6.10233 0.7365,-0.482575 0.91196,-1.015111 1.29972,-3.944775 0.24655,-1.862788 0.36618,-3.468974 0.26585,-3.569303 -0.10033,-0.100329 -1.09302,0.614437 -2.20599,1.588368 -3.59808,3.148599 -7.1486,4.275134 -11.17365,3.545254 -2.900492,-0.525959 -4.596968,-1.43613 -7.065443,-3.790657 -1.124312,-1.072412 -2.044204,-1.757651 -2.044204,-1.522752 0,0.234898 0.189016,1.965143 0.420035,3.844988 0.389053,3.165789 0.50615,3.499117 1.5875,4.518962 1.018787,0.960839 1.167465,1.325562 1.167465,2.863914 0,1.24372 -0.213233,2.033936 -0.72409,2.683385 -1.065141,1.354107 -0.658102,4.682024 0.768038,6.279394 0.810133,0.90741 1.011868,1.46081 1.001885,2.74835 -0.0069,0.88668 -0.239376,2.00903 -0.516666,2.4941 -0.277291,0.48507 -0.51161,1.43757 -0.52071,2.11666 -0.01499,1.11855 0.340651,1.57467 3.779861,4.84776 2.088019,1.98717 4.037669,3.61436 4.332539,3.61597 0.29487,0.002 2.02417,-1.49131 3.84288,-3.31762 z m -12.642156,-7.23564 c 1.438378,-1.43837 1.440394,-3.38365 0.0049,-4.75891 -3.225035,-3.08978 -7.803541,1.60069 -4.645317,4.75891 1.423218,1.42322 3.217167,1.42322 4.640385,0 z m 20.806296,0.66796 c 1.0579,-0.56617 1.83869,-2.37467 1.59228,-3.68813 -0.24088,-1.28397 -0.96767,-2.07119 -2.42309,-2.62454 -2.19922,-0.83614 -4.92284,1.69005 -4.33733,4.02292 0.53469,2.13038 3.23252,3.32566 5.16814,2.28975 z M 92.33942,97.888146 c 1.76011,-0.910189 2.255755,-2.770734 1.254118,-4.707688 -0.496727,-0.960562 -1.853888,-1.81505 -2.882798,-1.81505 -1.124852,0 -2.685326,1.148343 -3.184753,2.343641 -0.468287,1.120769 -0.457266,1.361307 0.115985,2.531424 0.997665,2.036427 2.75422,2.652554 4.697448,1.647673 z m 24.762,-0.489414 c 2.39206,-2.13731 0.97973,-5.8409 -2.22739,-5.8409 -1.18679,0 -1.63115,0.205871 -2.46944,1.144076 -1.4202,1.589477 -1.36581,2.976589 0.17721,4.519611 1.54303,1.543023 2.93014,1.597411 4.51962,0.177213 z"
       id="path2093" />
    <path
       style="fill:#ffffff;stroke-width:0.349913"
       d="m 61.465025,143.65227 c -5.846702,-4.3041 -23.642973,-21.23223 -26.154055,-24.87821 -0.704207,-1.02248 -1.40849,-2.5382 -1.565073,-3.36828 -0.389608,-2.06538 0.193787,-5.8881 1.29236,-8.46824 1.720551,-4.04094 2.291062,-6.75581 2.324499,-11.061482 0.03603,-4.639729 -0.441569,-6.125735 -3.036455,-9.447641 -2.417607,-3.094956 -3.308888,-4.713757 -4.483481,-8.143166 -1.009217,-2.946569 -1.106167,-3.611557 -1.108447,-7.602902 -0.0027,-4.771583 0.107082,-5.2008 2.237978,-8.747815 2.003308,-3.334636 2.538945,-5.846547 2.380301,-11.162605 C 33.19407,45.45795 33.025314,45.066576 29.140998,41.004401 25.70787,37.414074 24.93142,35.764897 24.003555,30.092485 23.205599,25.214263 21.415989,9.7845535 21.624017,9.5765248 c 0.295471,-0.2954707 3.223724,2.0157082 7.595112,5.9945872 9.700603,8.829578 15.502971,11.947572 26.15514,14.054875 3.897734,0.771083 13.509337,0.859135 17.057643,0.156265 8.755615,-1.734364 16.593508,-5.895301 26.266265,-13.944085 4.195963,-3.491498 6.716433,-5.340788 7.279173,-5.340788 1.06308,0 -1.40707,20.173319 -2.98731,24.396892 -0.56907,1.520993 -1.12497,2.20322 -3.040817,3.731842 -1.289442,1.028824 -2.782526,2.444952 -3.317966,3.146951 -2.488911,3.263129 -3.657203,8.038446 -3.036811,12.412774 0.420042,2.961674 0.392217,2.88011 2.583835,7.573739 1.733863,3.713284 1.801396,3.97322 1.914694,7.369923 0.133191,3.993203 -0.54924,8.673435 -1.616484,11.086121 -0.48661,1.100055 -1.290387,2.022306 -2.616021,3.001613 -3.932122,2.904828 -7.257096,9.197873 -7.257096,13.735215 0,2.340422 1.121277,5.653551 2.991294,8.838621 2.003309,3.41209 2.607307,5.09645 2.607307,7.27095 0,2.89929 -1.747215,6.38747 -5.413207,10.80705 -6.238634,7.52105 -20.933334,21.34467 -22.689685,21.34467 -0.282128,0 -1.467453,-0.70266 -2.634058,-1.56147 z"
       id="path2230"
       transform="matrix(0.26458333,0,0,0.26458333,85.973361,81.07807)" />
    <path
       style="fill:#ffffff;stroke-width:0.349913"
       d="M 14.067424,64.60006 C 10.78983,63.379113 8.4691458,61.039786 6.3666507,56.837421 4.6407068,53.387689 4.4967979,52.297814 5.4063409,49.564637 c 1.0155901,-3.05185 3.0845982,-5.831964 5.7622421,-7.74269 4.271016,-3.047734 7.286729,-3.417491 11.338912,-1.390267 4.380205,2.191327 6.777829,5.31297 7.759601,10.102793 1.149866,5.609916 -1.575451,10.581645 -7.258178,13.240913 -2.749336,1.28657 -6.718764,1.65267 -8.941494,0.824674 z"
       id="path2269"
       transform="matrix(0.26458333,0,0,0.26458333,85.973361,81.07807)" />
    <path
       style="fill:#ffffff;stroke-width:0.349913"
       d="m 19.573428,109.21509 c -3.251327,-0.84047 -7.589959,-4.53161 -8.961377,-7.624 C 9.5970557,99.302395 9.2437252,96.824104 9.6368679,94.75107 11.007531,87.523591 18.323661,82.593389 24.858894,84.493232 c 6.704661,1.949098 10.989191,8.563082 9.446928,14.583123 -1.407413,5.493675 -6.479116,9.966295 -11.669491,10.291075 -1.095317,0.0685 -2.473624,-1e-5 -3.062903,-0.15234 z"
       id="path2308"
       transform="matrix(0.26458333,0,0,0.26458333,85.973361,81.07807)" />
    <path
       style="fill:#ffffff;stroke-width:0.349913"
       d="m 107.24822,65.106447 c -3.48375,-1.06355 -8.439741,-5.499145 -10.033176,-8.979667 -2.007986,-4.386019 -0.916871,-8.143099 3.706826,-12.763849 3.18811,-3.18608 4.38951,-3.638913 9.03001,-3.403613 3.83606,0.194509 6.28731,1.270275 8.64999,3.796176 5.28542,5.650543 4.19529,13.937362 -2.47809,18.837676 -3.33637,2.449922 -6.31774,3.294151 -8.87556,2.513277 z"
       id="path2347"
       transform="matrix(0.26458333,0,0,0.26458333,85.973361,81.07807)" />
    <path
       style="fill:#ffffff;stroke-width:0.349913"
       d="m 100.34254,109.00492 c -4.358971,-1.22554 -7.650482,-3.82504 -9.428811,-7.44648 -1.380786,-2.811875 -1.396355,-6.369791 -0.04057,-9.269912 1.234017,-2.63964 3.964571,-5.48414 6.674357,-6.952875 1.987502,-1.07725 2.437643,-1.180334 5.157014,-1.18097 2.68493,-6.29e-4 3.21991,0.117579 5.41218,1.195863 3.20212,1.574987 5.45555,3.849027 6.46311,6.522201 0.64704,1.716679 0.75935,2.596889 0.64474,5.053049 -0.24283,5.204574 -3.02387,9.787184 -7.00489,11.542684 -2.18619,0.96404 -5.54313,1.19265 -7.87713,0.53644 z"
       id="path2386"
       transform="matrix(0.26458333,0,0,0.26458333,85.973361,81.07807)" />
  </g>
</svg>
