<?xml version="1.0" encoding="UTF-8" standalone="no"?>
<!-- Created with Inkscape (http://www.inkscape.org/) -->

<svg
   width="168.21191mm"
   height="222.59079mm"
   viewBox="0 0 168.21192 222.59079"
   version="1.1"
   id="svg5"
   inkscape:version="1.1 (c68e22c387, 2021-05-23)"
   sodipodi:docname="drums.svg"
   xmlns:inkscape="http://www.inkscape.org/namespaces/inkscape"
   xmlns:sodipodi="http://sodipodi.sourceforge.net/DTD/sodipodi-0.dtd"
   xmlns="http://www.w3.org/2000/svg"
   xmlns:svg="http://www.w3.org/2000/svg">
  <sodipodi:namedview
     id="namedview7"
     pagecolor="#505050"
     bordercolor="#ffffff"
     borderopacity="1"
     inkscape:pageshadow="0"
     inkscape:pageopacity="0"
     inkscape:pagecheckerboard="1"
     inkscape:document-units="mm"
     showgrid="false"
     fit-margin-top="0"
     fit-margin-left="0"
     fit-margin-right="0"
     fit-margin-bottom="0"
     inkscape:zoom="0.71446409"
     inkscape:cx="246.33848"
     inkscape:cy="305.82363"
     inkscape:window-width="2400"
     inkscape:window-height="1261"
     inkscape:window-x="4791"
     inkscape:window-y="117"
     inkscape:window-maximized="1"
     inkscape:current-layer="layer1" />
  <defs
     id="defs2" />
  <g
     inkscape:label="Layer 1"
     inkscape:groupmode="layer"
     id="layer1"
     transform="translate(7.9359469,10.647922)">
    <g
       style="clip-rule:evenodd;fill:#000000;fill-rule:evenodd;image-rendering:optimizeQuality;shape-rendering:geometricPrecision;text-rendering:geometricPrecision"
       id="g6368"
       transform="matrix(0.26458333,0,0,0.26458333,-55.724777,-37.795387)">
      <path
         full="#fff"
         class="fil0"
         d="m 239,231 c -48,-13 -82,-88 -38,-119 44,-32 104,24 101,74 93,125 149,200 196,264 48,-64 103,-139 197,-264 -4,-50 57,-106 101,-74 44,31 10,106 -38,119 -58,83 -130,187 -205,294 58,78 123,166 254,342 37,51 -46,107 -81,58 C 661,836 580,721 498,603 416,721 335,836 271,925 235,974 153,918 190,867 321,691 386,603 443,525 369,418 297,314 239,231 Z M 480,577 461,550 213,884 c -13,19 21,43 34,25 z m 36,-102 18,24 201,-286 c 2,-5 6,-8 12,-9 28,-5 54,-53 32,-69 -23,-16 -60,24 -55,53 1,4 -1,9 -4,12 z m 233,434 c 14,18 48,-6 34,-25 L 277,200 c -3,-3 -5,-8 -4,-12 5,-29 -32,-69 -55,-53 -22,16 3,64 32,69 5,1 10,4 12,9 z"
         id="path6356"
         style="fill:#000000" />
    </g>
    <path
       style="fill:#ffffff;fill-opacity:1;stroke-width:1.39965"
       d="m 280.05425,457.33579 c -3.48408,-3.34817 -458.89279,-652.7751 -487.98791,-695.88588 -4.44574,-6.58734 -5.6754,-7.36566 -19.88328,-12.58521 -10.15056,-3.72902 -21.05004,-14.54341 -27.20064,-26.98829 -10.87337,-22.00077 -6.25151,-39.09051 11.34411,-41.94588 7.40139,-1.20108 21.28899,5.9784 29.31763,15.15634 10.05216,11.49113 13.92018,20.75626 14.82826,35.51838 l 0.77721,12.63481 9.79756,13.39096 c 5.38865,7.36503 120.334945,162.762479 255.436208,345.32765 144.577922,195.37121 246.146772,333.8477 246.873672,336.58157 2.77713,10.44469 -9.66945,23.34442 -22.52435,23.34442 -4.91587,0 -6.92909,-0.84965 -10.77847,-4.54887 z"
       id="path6462"
       transform="matrix(0.26458333,0,0,0.26458333,69.041272,81.853523)" />
    <path
       style="fill:#ffffff;fill-opacity:1;stroke-width:1.39965"
       d="m 53.886543,34.09438 c -4.233942,-5.838866 -7.519874,-11.237122 -7.30207,-11.996152 0.217804,-0.759017 46.238102,-63.19986 102.267327,-138.757418 56.02923,-75.55755 102.38312,-138.23592 103.00867,-139.28525 0.62553,-1.04934 1.05562,-5.45273 0.95574,-9.78532 -0.22833,-9.90396 3.01178,-21.35668 8.46731,-29.92925 6.50473,-10.22124 18.20774,-20.16002 27.00332,-22.93258 7.14591,-2.25256 7.89786,-2.2481 14.0019,0.0831 3.54775,1.35489 7.45183,3.99175 8.67574,5.85967 7.77599,11.86766 2.51661,32.5126 -12.45631,48.89535 -7.51261,8.22 -13.96571,12.20506 -25.13518,15.52203 -5.55448,1.64951 -7.52142,3.14897 -10.62686,8.10127 -6.3133,10.06787 -199.706427,284.885476 -200.461684,284.862228 -0.384904,-0.0112 -4.16396,-4.798786 -8.397903,-10.637638 z"
       id="path6501"
       transform="matrix(0.26458333,0,0,0.26458333,69.041272,81.853523)" />
    <path
       style="fill:#ffffff;fill-opacity:1;stroke-width:1.39965"
       d="m -247.79779,459.27722 c -10.77062,-6.56814 -15.14589,-16.51841 -10.90013,-24.78917 3.69192,-7.19185 247.309132,-334.835877 248.47896,-334.18264 0.5380395,0.30045 4.7651659,5.98884 9.39360011,12.64088 L 7.5900106,125.0409 2.9188451,131.45324 C 0.34970267,134.98002 -51.63389,209.0378 -112.60024,296.02608 c -60.96637,86.98827 -112.70152,159.89257 -114.96701,162.00954 -5.01216,4.68358 -13.71083,5.21743 -20.23054,1.2416 z"
       id="path6540"
       transform="matrix(0.26458333,0,0,0.26458333,69.041272,81.853523)" />
  </g>
</svg>
