<?xml version="1.0" encoding="UTF-8" standalone="no"?>
<!-- Created with Inkscape (http://www.inkscape.org/) -->

<svg
   width="39.006008mm"
   height="41.065285mm"
   viewBox="0 0 39.006008 41.065285"
   version="1.1"
   id="svg5"
   inkscape:version="1.1 (c68e22c387, 2021-05-23)"
   sodipodi:docname="guitarghl.svg"
   xmlns:inkscape="http://www.inkscape.org/namespaces/inkscape"
   xmlns:sodipodi="http://sodipodi.sourceforge.net/DTD/sodipodi-0.dtd"
   xmlns="http://www.w3.org/2000/svg"
   xmlns:svg="http://www.w3.org/2000/svg">
  <sodipodi:namedview
     id="namedview7"
     pagecolor="#505050"
     bordercolor="#ffffff"
     borderopacity="1"
     inkscape:pageshadow="0"
     inkscape:pageopacity="0"
     inkscape:pagecheckerboard="1"
     inkscape:document-units="mm"
     showgrid="false"
     fit-margin-top="0"
     fit-margin-left="0"
     fit-margin-right="0"
     fit-margin-bottom="0"
     inkscape:zoom="2.8578563"
     inkscape:cx="93.776582"
     inkscape:cy="103.04927"
     inkscape:window-width="1920"
     inkscape:window-height="991"
     inkscape:window-x="2391"
     inkscape:window-y="-9"
     inkscape:window-maximized="1"
     inkscape:current-layer="layer1" />
  <defs
     id="defs2" />
  <g
     inkscape:label="Layer 1"
     inkscape:groupmode="layer"
     id="layer1"
     transform="translate(-68.350416,-76.663911)">
    <path
       style="fill:#000000;stroke-width:0.352778"
       d="m 83.346154,116.73969 c -6.102367,-2.95107 -13.338101,-14.85405 -14.83089,-24.397223 -0.71262,-4.555672 0.897151,-8.47632 4.597143,-11.196485 4.255749,-3.128749 8.718216,-4.482071 14.77926,-4.482071 4.615553,0 7.796675,0.653754 11.1125,2.283735 8.057803,3.961023 10.042073,9.19333 6.997533,18.451762 -2.91852,8.875202 -8.538983,16.858582 -13.597873,19.314582 -2.76888,1.34424 -6.310347,1.35429 -9.057673,0.0257 z m 8.504269,-1.12469 c 4.749419,-2.29916 10.071307,-9.99973 13.041857,-18.871076 1.41485,-4.225341 1.57546,-8.468076 0.40254,-10.633405 -1.61724,-2.985588 -5.08724,-5.576099 -9.54731,-7.127485 -2.489707,-0.866018 -3.208793,-0.953276 -7.855843,-0.953276 -4.680447,0 -5.355184,0.08331 -7.9375,0.980073 -3.35943,1.166629 -4.719276,1.959556 -7.000754,4.082147 -4.204951,3.912105 -4.402121,8.185107 -0.786684,17.048722 3.289373,8.06424 8.221478,14.2206 12.784669,15.95812 1.855215,0.7064 4.878285,0.4944 6.899025,-0.48382 z m -9.754391,-6.24635 c -0.304901,-0.3049 -0.554365,-0.66569 -0.554365,-0.80176 0,-0.13608 -0.626051,-0.24741 -1.391224,-0.24741 -2.525392,0 -3.997244,-2.28202 -3.004421,-4.65818 0.263498,-0.63064 0.526875,-1.149 0.585283,-1.15193 0.05841,-0.003 0.741195,-0.23407 1.517306,-0.51368 l 1.411111,-0.50837 -1.51615,-0.0155 c -3.883955,-0.0397 -4.431582,-5.240011 -0.666516,-6.329336 l 1.124333,-0.325296 -1.303244,-0.03182 c -1.968081,-0.04805 -3.266832,-1.322938 -3.266832,-3.206816 0,-1.187878 0.196965,-1.655416 0.981794,-2.330497 0.539986,-0.464477 1.354709,-0.844504 1.810496,-0.844504 0.752595,0 0.813119,-0.121497 0.659013,-1.322916 -0.109783,-0.855879 0.01657,-1.572004 0.357909,-2.028472 0.502156,-0.67153 0.938651,-0.705556 9.051142,-0.705556 8.112491,0 8.548986,0.03402 9.051142,0.705556 0.341337,0.456468 0.467692,1.172593 0.357909,2.028472 -0.158683,1.237105 -0.108939,1.323644 0.766879,1.334136 1.60421,0.01922 2.876843,1.498561 2.876843,3.344114 0,1.417437 -1.752502,2.982534 -3.412442,3.047524 -1.012303,0.03963 -1.114673,0.08892 -0.409192,0.196996 2.588335,0.396529 3.729034,3.755382 1.897397,5.587015 -0.642947,0.64295 -1.256095,0.8699 -2.38125,0.8814 l -1.515341,0.0155 1.411111,0.50837 c 0.776111,0.27961 1.446722,0.51076 1.490246,0.51368 0.254714,0.0171 1.155587,2.2034 1.155587,2.80445 0,0.39463 -0.460004,1.23235 -1.022231,1.86159 -0.833857,0.93325 -1.285219,1.14407 -2.44935,1.14407 -1.141859,0 -1.500137,0.16026 -1.792428,0.80177 -0.356976,0.78348 -0.489635,0.80177 -5.81573,0.80177 -4.484557,0 -5.548658,-0.0982 -6.004785,-0.55437 z m 11.155851,-1.0427 c 0.308024,-0.67604 0.306196,-0.99152 -0.0076,-1.30528 -0.665243,-0.66524 -0.510509,-3.35091 0.236078,-4.09749 0.909057,-0.90906 1.100136,-1.92031 0.550321,-2.91247 -0.720095,-1.29943 -0.584098,-2.627202 0.387338,-3.781689 0.895121,-1.063791 1.171878,-2.665729 0.529167,-3.062946 -0.722436,-0.446491 -0.385134,-2.906025 0.551128,-4.018709 0.69116,-0.821397 0.877979,-1.388224 0.79375,-2.408317 l -0.110156,-1.334086 h -8.290278 -8.290278 l -0.110156,1.334086 c -0.08501,1.029555 0.103138,1.587572 0.824238,2.44455 0.95915,1.139885 1.033338,2.230805 0.336159,4.943157 -0.192029,0.747081 -0.0421,1.204114 0.67433,2.055539 0.942632,1.120254 1.271379,3.252145 0.568485,3.686557 -0.603846,0.373198 -0.387,2.258838 0.343804,2.989638 1.015693,1.01569 1.249892,2.36956 0.633501,3.66217 -0.348505,0.73084 -0.428799,1.38011 -0.235344,1.90305 0.285429,0.77157 0.432202,0.79375 5.251456,0.79375 h 4.95782 z m -11.383043,-1.8019 c 0.914736,-1.16289 0.914736,-1.56417 0,-2.72707 -0.957576,-1.21736 -2.854935,-1.2928 -3.658558,-0.14547 -0.756397,1.07991 -0.68767,2.02167 0.217879,2.98558 1.046956,1.11443 2.513039,1.06627 3.440679,-0.11304 z m 15.547827,0.22397 c 1.454662,-1.45466 0.449027,-3.96875 -1.5875,-3.96875 -1.305141,0 -2.293055,1.04085 -2.293055,2.41592 0,2.02735 2.43261,3.00077 3.880555,1.55283 z m -16.80452,-6.72838 c 1.361171,-1.070701 1.120028,-2.997794 -0.482438,-3.855407 -1.720188,-0.920617 -3.898823,1.093039 -3.192517,2.950763 0.637556,1.676904 2.203218,2.062314 3.674955,0.904644 z m 17.7025,-0.134752 c 1.03296,-1.03296 1.097661,-1.944725 0.215328,-3.034361 -1.310005,-1.617787 -4.288308,-0.585775 -4.288308,1.485943 0,0.906103 1.542656,2.41433 2.469445,2.41433 0.405694,0 1.127285,-0.38966 1.603535,-0.865912 z M 79.553814,93.316859 c 1.60975,-1.26623 0.813109,-4.207729 -1.139572,-4.207729 -1.131064,0 -2.51702,1.359759 -2.51702,2.469445 0,1.008921 1.3562,2.469444 2.293056,2.469444 0.238709,0 0.8523,-0.329022 1.363536,-0.73116 z m 19.402778,0 c 1.609748,-1.26623 0.813109,-4.207729 -1.139572,-4.207729 -1.131064,0 -2.51702,1.359759 -2.51702,2.469445 0,1.008921 1.3562,2.469444 2.293056,2.469444 0.238709,0 0.8523,-0.329022 1.363536,-0.73116 z"
       id="path4789" />
    <path
       style="fill:#ffb300;fill-opacity:1;stroke-width:0.349913"
       d="M 44.148174,141.85651 C 31.186113,139.51435 14.923815,124.06868 2.3681467,102.17449 -6.0054978,87.572782 -13.644694,68.349926 -16.682509,54.236456 c -0.665266,-3.090778 -0.792536,-4.757363 -0.801636,-10.497378 -0.0097,-6.095618 0.07503,-7.121831 0.794163,-9.622598 1.810177,-6.294836 5.195767,-11.591571 10.9651778,-17.154955 C 2.9571263,8.5896288 8.7493971,5.21139 22.187322,0.68227572 31.470746,-2.4466074 32.761104,-2.5928388 51.087243,-2.5928388 c 17.911141,0 19.654805,0.1819973 27.796092,2.90126151 C 88.065399,3.3753149 96.095229,7.399232 102.5244,12.155457 c 6.18424,4.57503 12.71596,12.030971 14.79724,16.891001 1.70261,3.975804 1.99933,6.06819 1.98426,13.992794 -0.0108,5.663301 -0.16747,8.344902 -0.63385,10.847292 -1.89252,10.154327 -5.49298,20.774263 -11.38505,33.581359 -11.105594,24.139277 -26.736439,43.885347 -40.300302,50.910397 -6.694175,3.46708 -15.488196,4.80637 -22.838524,3.47821 z m 26.87801,-24.7106 c 1.362696,-0.35176 1.897664,-0.70532 2.449388,-1.61882 1.497245,-2.47899 2.367656,-3.19227 4.340267,-3.55673 1.036641,-0.19153 2.75044,-0.34823 3.808442,-0.34823 3.311318,0 4.538283,-0.57253 7.458601,-3.48036 1.85684,-1.8489 3.006667,-3.36319 3.826568,-5.0395 1.1188,-2.28741 1.154456,-2.48048 0.784133,-4.246006 C 93.231187,96.651779 91.397635,92.137 90.335867,90.588525 89.68779,89.643376 88.840491,89.222714 84.503898,87.693131 l -5.073733,-1.789583 4.548864,-0.18081 c 5.461247,-0.217075 6.924746,-0.782965 9.602708,-3.713084 1.844946,-2.018663 3.169103,-5.22464 3.169103,-7.672856 0,-3.250975 -1.515402,-7.167487 -3.71559,-9.60283 -1.366664,-1.512736 -4.978042,-3.493202 -6.400286,-3.5099 -1.556303,-0.01827 -0.06515,-0.575897 2.104952,-0.78716 3.903464,-0.380016 8.601657,-3.609464 10.662551,-7.329245 0.902503,-1.628959 1.018913,-2.173868 0.992233,-4.644765 -0.0392,-3.634556 -1.008175,-6.180202 -3.311615,-8.700528 -2.011606,-2.201021 -4.090429,-3.211715 -7.332492,-3.564963 -1.249843,-0.136179 -2.480671,-0.413288 -2.73518,-0.6158 -0.360095,-0.286526 -0.409139,-1.195267 -0.221099,-4.096572 0.387101,-5.972618 -0.824104,-8.785799 -4.214936,-9.78974 -4.005652,-1.185973 -58.983549,-1.1864 -62.984271,-4.9e-4 -3.391169,1.005225 -4.602029,3.817746 -4.214936,9.790229 0.276306,4.263152 0.224668,4.367443 -2.295705,4.636512 -3.5261825,0.37645 -8.1852743,3.553713 -9.87484,6.734135 -0.6260504,1.178474 -0.7491129,2.008978 -0.754181,5.089707 -0.00571,3.471301 0.060531,3.816696 1.160496,6.051046 2.1180782,4.302424 6.1750494,6.507958 12.079507,6.566901 l 2.849921,0.02845 -2.510719,0.797758 c -3.250491,1.032816 -5.220792,2.208019 -7.0757077,4.220363 -2.367317,2.568236 -3.0024039,4.304821 -3.0067442,8.221659 -0.00318,2.864325 0.1227885,3.590397 0.9105685,5.248689 1.1664771,2.45546 3.118205,4.402863 5.5591314,5.546815 1.621091,0.759734 2.586545,0.931464 6.123471,1.089208 l 4.198951,0.187273 -4.898776,1.714597 c -2.694328,0.943028 -5.159868,1.966523 -5.47898,2.274432 -0.319111,0.307909 -1.08981,1.74079 -1.712663,3.18418 -1.5324929,3.551372 -1.8194769,7.936091 -0.7117826,10.875051 1.8788606,4.98505 5.7048156,7.34189 12.6855896,7.81451 1.667929,0.11293 3.265815,0.29482 3.550858,0.4042 0.285039,0.10938 0.962049,0.90098 1.50447,1.7591 1.757492,2.78043 3.271001,3.28521 10.982309,3.66276 8.228954,0.4029 30.247265,0.0991 32.360839,-0.44647 z"
       id="path4965"
       transform="matrix(0.26458333,0,0,0.26458333,74.374836,78.799394)" />
    <path
       style="fill:#ffffff;fill-opacity:1;stroke-width:0.349913"
       d="m 35.249903,114.41553 c -2.507796,-0.36578 -3.38898,-1.0263 -3.925468,-2.94245 -0.553219,-1.9759 -0.354603,-3.28111 1.055848,-6.93853 0.974605,-2.52724 1.087776,-3.18329 0.978196,-5.670704 -0.143927,-3.267106 -0.835122,-4.939321 -3.258908,-7.884308 -1.840092,-2.23578 -2.680847,-4.472957 -2.745994,-7.306865 -0.03459,-1.504417 0.130439,-2.270352 0.646409,-3.000213 2.048375,-2.897518 1.972738,-2.654829 1.804889,-5.791159 -0.204126,-3.814191 -1.08723,-6.129129 -3.738907,-9.801046 -1.14481,-1.585279 -2.182798,-3.422436 -2.30664,-4.08257 -0.146369,-0.780211 0.120886,-2.754945 0.763685,-5.642821 0.704897,-3.166868 0.988578,-5.397131 0.987898,-7.766748 -0.0011,-3.864653 -0.556688,-5.437131 -3.063474,-8.670652 -2.854913,-3.682572 -3.195867,-4.890328 -2.842815,-10.070068 l 0.249036,-3.653687 h 31.237138 31.237139 l 0.246611,3.775049 c 0.286117,4.379814 0.0014,5.807772 -1.648634,8.263933 -0.630207,0.938189 -1.584268,2.352914 -2.120128,3.143833 -1.123338,1.658019 -2.257076,5.07437 -2.571357,7.748409 -0.345595,2.940487 0.09298,4.841767 1.507388,6.534702 1.181193,1.413797 1.236364,1.594525 1.064697,3.487688 -0.217009,2.393211 -1.394972,5.087395 -3.536444,8.088403 -3.403779,4.769967 -3.720023,8.512066 -1.184273,14.013444 1.805669,3.917447 1.368946,6.906236 -1.483923,10.155472 -2.951653,3.361747 -3.989228,10.824878 -2.104354,15.136338 0.346718,0.79308 0.805702,1.55031 1.019961,1.68273 0.707142,0.43704 0.406255,2.60537 -0.707023,5.09516 l -1.096584,2.45247 -16.311568,-0.0437 c -8.971361,-0.024 -17.139942,-0.16447 -18.152401,-0.31215 z"
       id="path5195"
       transform="matrix(0.26458333,0,0,0.26458333,74.374836,78.799394)" />
    <path
       style="fill:#ffffff;fill-opacity:1;stroke-width:0.349913"
       d="M 11.94227,56.640351 C 8.8128517,54.989727 5.9939968,50.92011 6.0364182,48.113997 c 0.059265,-3.920285 5.2520538,-8.909952 9.2834978,-8.920365 5.347465,-0.01381 8.963126,6.97426 6.426695,12.421027 -0.934147,2.006 -2.642957,3.638097 -5.127046,4.89688 -2.068213,1.048043 -2.891538,1.070717 -4.677295,0.128812 z"
       id="path5234"
       transform="matrix(0.26458333,0,0,0.26458333,74.374836,78.799394)" />
    <path
       style="fill:#ffffff;fill-opacity:1;stroke-width:0.349913"
       d="M 15.110968,82.223567 C 12.654575,81.486258 9.9314604,78.094917 9.4346521,75.154334 8.3760454,68.888495 16.02505,62.980449 21.548005,65.79805 c 5.88405,3.001818 6.851048,10.115535 1.923876,14.152981 -2.677065,2.193653 -5.797786,3.04188 -8.360913,2.272536 z"
       id="path5273"
       transform="matrix(0.26458333,0,0,0.26458333,74.374836,78.799394)" />
    <path
       style="fill:#ffffff;fill-opacity:1;stroke-width:0.349913"
       d="m 19.687499,107.77459 c -2.382528,-0.71739 -4.865792,-2.95375 -6.213715,-5.59589 -1.046499,-2.05131 -0.913056,-4.084176 0.439621,-6.697198 1.950246,-3.76737 5.375179,-5.196228 9.565078,-3.990482 1.677936,0.482866 2.427758,0.966067 3.999164,2.577144 3.577149,3.667453 3.964727,5.74136 1.705286,9.124896 -2.654891,3.97573 -6.056504,5.617 -9.495434,4.58153 z"
       id="path5312"
       transform="matrix(0.26458333,0,0,0.26458333,74.374836,78.799394)" />
    <path
       style="fill:#ffffff;fill-opacity:1;stroke-width:0.349913"
       d="m 85.290389,56.6486 c -2.769692,-1.370974 -5.555013,-5.143489 -5.945166,-8.052295 -0.368512,-2.747464 2.806403,-7.09735 6.383369,-8.745722 5.902582,-2.720084 11.851256,3.699086 9.839844,10.618101 -0.660989,2.273721 -2.427211,4.264796 -5.187219,5.847587 -2.195602,1.259119 -3.09931,1.318113 -5.090828,0.332329 z"
       id="path5351"
       transform="matrix(0.26458333,0,0,0.26458333,74.374836,78.799394)" />
    <path
       style="fill:#ffffff;fill-opacity:1;stroke-width:0.349913"
       d="m 82.99857,82.421151 c -3.95388,-1.401735 -7.5924,-5.708403 -7.5924,-8.986605 0,-5.134506 6.25837,-9.163226 11.897029,-7.658513 3.235813,0.863499 6.743597,5.900489 6.068792,8.714463 -0.812589,3.388543 -4.68754,7.201308 -8.343224,8.20933 -0.384904,0.106134 -1.298493,-0.01927 -2.030197,-0.278675 z"
       id="path5390"
       transform="matrix(0.26458333,0,0,0.26458333,74.374836,78.799394)" />
    <path
       style="fill:#ffffff;fill-opacity:1;stroke-width:0.349913"
       d="m 78.884861,107.81158 c -5.602705,-1.82764 -7.842874,-7.5861 -4.95662,-12.741216 1.472071,-2.629256 3.97008,-4.093083 6.984812,-4.093083 3.651656,0 6.196965,1.564617 7.661423,4.709521 2.023861,4.346218 0.239697,9.332488 -4.151897,11.603468 -1.247157,0.64493 -4.282743,0.9307 -5.537718,0.52131 z"
       id="path5429"
       transform="matrix(0.26458333,0,0,0.26458333,74.374836,78.799394)" />
  </g>
</svg>
