<?xml version="1.0" encoding="UTF-8" standalone="no"?>
<!-- Created with Inkscape (http://www.inkscape.org/) -->

<svg
   width="36.58242mm"
   height="35.98333mm"
   viewBox="0 0 36.58242 35.98333"
   version="1.1"
   id="svg5"
   inkscape:version="1.1 (c68e22c387, 2021-05-23)"
   sodipodi:docname="guitar.svg"
   xmlns:inkscape="http://www.inkscape.org/namespaces/inkscape"
   xmlns:sodipodi="http://sodipodi.sourceforge.net/DTD/sodipodi-0.dtd"
   xmlns="http://www.w3.org/2000/svg"
   xmlns:svg="http://www.w3.org/2000/svg">
  <sodipodi:namedview
     id="namedview7"
     pagecolor="#505050"
     bordercolor="#ffffff"
     borderopacity="1"
     inkscape:pageshadow="0"
     inkscape:pageopacity="0"
     inkscape:pagecheckerboard="1"
     inkscape:document-units="mm"
     showgrid="false"
     fit-margin-top="0"
     fit-margin-left="0"
     fit-margin-right="0"
     fit-margin-bottom="0"
     inkscape:zoom="2.8578563"
     inkscape:cx="27.293184"
     inkscape:cy="86.603374"
     inkscape:window-width="1920"
     inkscape:window-height="991"
     inkscape:window-x="2391"
     inkscape:window-y="-9"
     inkscape:window-maximized="1"
     inkscape:current-layer="layer1" />
  <defs
     id="defs2" />
  <g
     inkscape:label="Layer 1"
     inkscape:groupmode="layer"
     id="layer1"
     transform="translate(-85.973361,-81.07807)">
    <path
       style="fill:#000000;stroke-width:0.352778"
       d="m 96.203917,116.35585 c -0.388056,-0.38806 -0.705556,-1.10802 -0.705556,-1.59991 0,-0.77491 -0.09114,-0.84559 -0.682363,-0.52917 -0.3753,0.20085 -1.343675,0.36519 -2.151945,0.36519 -1.200917,0 -1.688858,-0.21928 -2.669025,-1.19945 -0.978679,-0.97867 -1.199444,-1.46888 -1.199444,-2.66335 0,-2.77951 1.601874,-4.44753 4.205608,-4.37926 1.239508,0.0325 1.295626,-0.015 1.15441,-0.97717 -0.08164,-0.55623 -0.171149,-1.01133 -0.198915,-1.01133 -0.02777,0 -0.603298,0.15855 -1.27896,0.35233 -2.686336,0.77043 -5.293255,-1.25809 -5.293255,-4.11884 0,-1.344357 0.188933,-1.784641 1.199445,-2.795153 0.974011,-0.974011 1.471291,-1.199444 2.645833,-1.199444 1.382982,0 1.446389,-0.04805 1.446389,-1.096077 0,-0.919427 -0.0995,-1.049231 -0.617361,-0.805411 -0.339549,0.159866 -1.308548,0.291219 -2.153333,0.291896 -1.321678,0.0011 -1.703121,-0.181161 -2.734028,-1.306076 -0.893626,-0.975114 -1.198056,-1.62682 -1.198056,-2.564726 0,-2.539334 1.726133,-4.397384 4.085181,-4.397384 h 1.287783 L 91.10147,84.762769 c -0.189239,-1.514625 -0.116498,-2.155642 0.320263,-2.822222 l 0.565116,-0.862477 h 12.108021 c 11.6348,0 12.13283,0.0274 12.74258,0.701177 0.52451,0.579568 0.59611,1.069037 0.41287,2.822222 l -0.2217,2.121046 h 1.24684 c 3.6621,0 5.56943,3.950106 3.30026,6.834887 -0.94832,1.205597 -3.08055,1.846875 -4.49793,1.352774 -0.86065,-0.300025 -1.10307,-0.269568 -1.26763,0.15926 -0.4747,1.237061 -0.22415,1.530857 1.30554,1.530857 3.41237,0 5.25168,3.528567 3.32879,6.386027 -1.0133,1.50579 -3.06252,2.27661 -4.61428,1.73566 -1.15146,-0.4014 -1.619,-0.0636 -1.62922,1.17697 -0.004,0.52329 0.172,0.61108 0.87357,0.435 2.24084,-0.56242 4.76547,1.7071 4.76547,4.28392 0,1.33146 -0.19208,1.76728 -1.24137,2.81657 -1.19295,1.19295 -1.32343,1.23542 -3.34584,1.08914 l -2.10447,-0.15223 -0.37539,1.13744 c -0.20647,0.62559 -0.61882,1.23086 -0.91635,1.34503 -0.29752,0.11417 -3.78235,0.20758 -7.74405,0.20758 -6.732717,0 -7.249161,-0.0461 -7.908643,-0.70555 z M 112.038,115.14151 c 0.40705,-0.84976 0.41737,-1.23352 0.0569,-2.11666 -1.01745,-2.49288 -0.91221,-3.7222 0.46,-5.37306 1.13056,-1.36014 1.47875,-3.72948 0.71857,-4.88966 -0.82051,-1.25224 -0.48605,-3.809063 0.65956,-5.042124 1.11314,-1.198117 1.46875,-3.338223 0.77698,-4.675952 -0.86447,-1.671699 -0.66212,-3.659354 0.50823,-4.992305 1.20117,-1.368058 1.85739,-4.819114 1.09178,-5.741625 -0.37144,-0.447549 -2.20076,-0.526498 -12.19941,-0.526498 -11.340073,0 -11.775795,0.02495 -12.134232,0.694691 -0.520715,0.972965 0.07895,4.595328 0.830344,5.015831 0.78015,0.436593 1.633286,2.161722 1.633286,3.302672 0,0.513888 -0.258407,1.478895 -0.574238,2.14446 -0.741478,1.562548 -0.470812,3.883959 0.534991,4.588451 0.39827,0.27896 0.911093,1.131231 1.139605,1.893937 0.349494,1.166502 0.316597,1.645652 -0.207146,3.017052 -0.772907,2.02383 -0.554963,3.60286 0.729763,5.28723 1.07059,1.40361 1.330031,3.916 0.506814,4.90792 -0.545775,0.65762 -0.263097,2.98895 0.41535,3.42552 0.24941,0.16049 3.626463,0.25271 7.504563,0.20494 l 7.05108,-0.0869 z m -16.862704,-2.23722 c 1.519781,-1.35792 1.540455,-3.25498 0.0517,-4.74374 -1.488757,-1.48876 -3.385817,-1.46808 -4.743741,0.0517 -1.35792,1.51977 -1.339584,3.25429 0.04908,4.64296 1.388667,1.38866 3.123182,1.407 4.64296,0.0491 z m 22.792974,0.13071 c 0.81067,-0.6973 0.98981,-1.13753 0.98981,-2.4324 0,-3.7226 -4.56459,-4.90336 -6.31638,-1.63392 -1.79246,3.34533 2.42328,6.56363 5.32657,4.06632 z m -24.041263,-9.74533 c 0.262311,-0.2177 0.648565,-0.91588 0.858342,-1.5515 1.127637,-3.416778 -3.106194,-5.959055 -5.664124,-3.401125 -1.780161,1.780165 -1.192932,4.487085 1.190844,5.489385 1.112583,0.46781 2.686015,0.23418 3.614938,-0.53676 z m 25.380093,0.0165 c 0.76216,-0.63254 1.33235,-2.40335 1.08771,-3.378051 -0.38711,-1.542355 -1.75166,-2.622301 -3.31339,-2.622301 -3.74215,0 -4.87852,4.736862 -1.53685,6.406202 1.20381,0.60137 2.74984,0.4346 3.76253,-0.40586 z M 92.320454,93.448513 c 2.541006,-1.804326 1.060739,-6.020443 -2.113759,-6.020443 -3.030373,0 -4.578153,3.876214 -2.362951,5.917702 1.350579,1.244668 2.821026,1.278414 4.47671,0.102741 z m 27.367216,0.518642 c 1.41914,-0.592956 2.41608,-2.478944 2.06011,-3.897262 -0.33362,-1.329239 -2.09716,-2.641823 -3.54946,-2.641823 -1.69777,0 -3.29718,1.58946 -3.29718,3.276677 0,1.334539 1.06136,2.951417 2.25359,3.433132 1.03536,0.418335 1.14,0.411282 2.53294,-0.170724 z"
       id="path1462" />
    <path
       style="fill:#ffffff;stroke-width:0.349913"
       d="m 368.98286,438.87938 c -1.33103,-0.091 -2.16182,-0.3544 -2.69401,-0.85431 -1.11182,-1.04438 -1.8809,-3.53962 -2.1056,-6.83153 -0.19139,-2.80403 -0.16372,-2.93857 1.15149,-5.5986 1.20077,-2.4286 1.36214,-3.06864 1.48116,-5.87475 0.22135,-5.21861 -0.78036,-8.36119 -4.46367,-14.00345 -2.75682,-4.22302 -3.307,-5.96604 -3.31126,-10.49044 -0.003,-3.61895 0.0845,-4.10401 1.47,-8.11456 1.13017,-3.27136 1.47267,-4.78012 1.46948,-6.47339 -0.008,-4.44187 -1.68141,-8.51445 -4.96994,-12.0979 -2.87584,-3.13375 -3.58527,-5.11572 -3.5365,-9.88001 0.0346,-3.37892 0.12616,-3.77053 2.20224,-9.41767 1.92783,-5.24389 1.79255,-8.37765 -0.57404,-13.29799 -0.87881,-1.82713 -1.92183,-3.26941 -3.46139,-4.7864 -1.85507,-1.82788 -2.31481,-2.53145 -2.90703,-4.44885 -2.10965,-6.83023 -2.22465,-13.75471 -0.25911,-15.60124 1.66661,-1.5657 2.91788,-1.61087 44.47719,-1.60569 41.0862,0.005 44.11124,0.10476 46.00783,1.51527 3.30846,2.46054 1.30483,15.14909 -3.35147,21.22416 -4.66228,6.08287 -5.36976,11.53244 -2.46156,18.9608 1.51218,3.86251 1.84235,6.242 1.29906,9.36185 -0.54708,3.14156 -1.75466,5.75219 -4.04224,8.73884 -1.04688,1.36679 -2.33534,3.58585 -2.86324,4.93124 -0.85998,2.1917 -0.96175,2.90275 -0.9783,6.83504 l -0.0185,4.38886 1.39965,2.9593 c 1.33021,2.81249 1.39926,3.12422 1.39192,6.28348 -0.0115,4.96823 -1.30624,8.44913 -4.88763,13.14101 -4.0257,5.27396 -4.41472,9.78909 -1.53182,17.77898 1.83122,5.07518 1.83619,6.26217 0.0422,10.09035 l -1.39195,2.97034 -1.67152,0.22911 c -1.71054,0.23446 -47.43274,0.20585 -50.91151,-0.0318 z"
       id="path1636"
       transform="scale(0.26458333)" />
    <path
       style="fill:#ffffff;stroke-width:0.349913"
       d="m 344.13906,392.9558 c -4.66316,-0.80273 -8.82552,-4.21136 -10.36179,-8.48546 -0.79678,-2.21672 -0.70926,-5.65413 0.20531,-8.06394 0.93186,-2.45538 3.7841,-5.66778 6.19216,-6.97406 9.07496,-4.92281 20.3782,3.23818 18.30653,13.2174 -0.49013,2.36093 -2.08198,5.84403 -3.2354,7.07929 -2.27743,2.43904 -7.26516,3.88809 -11.10681,3.22677 z"
       id="path1675"
       transform="scale(0.26458333)" />
    <path
       style="fill:#ffffff;stroke-width:0.349913"
       d="m 336.71475,355.55445 c -3.59228,-1.45109 -6.48108,-4.34753 -7.78073,-7.80128 -0.91765,-2.4386 -0.64946,-6.82277 0.57894,-9.46397 1.22885,-2.64218 3.75147,-5.2854 6.18462,-6.4803 1.73093,-0.85005 2.36868,-0.96631 5.29227,-0.96484 2.94601,10e-4 3.53168,0.11089 5.14829,0.96161 3.524,1.85447 5.81897,4.61312 6.89281,8.28543 1.30397,4.45928 0.30336,8.43065 -2.92554,11.6114 -3.91345,3.85509 -9.44429,5.44609 -13.39066,3.85195 z"
       id="path1714"
       transform="scale(0.26458333)" />
    <path
       style="fill:#ffffff;stroke-width:0.349913"
       d="m 348.08819,429.90589 c -2.28018,-0.74509 -4.34449,-2.08955 -6.11565,-3.98307 -5.03174,-5.37933 -4.69879,-11.82688 0.89958,-17.42061 3.8269,-3.82372 8.32837,-4.66472 12.92384,-2.41453 2.79748,1.36979 6.20891,5.01846 7.23503,7.73817 1.09285,2.89661 0.88162,6.66801 -0.5088,9.08442 -3.02386,5.25515 -9.76372,8.5217 -14.434,6.99562 z"
       id="path1753"
       transform="scale(0.26458333)" />
    <path
       style="fill:#ffffff;stroke-width:0.349913"
       d="m 443.6892,355.95849 c -3.53273,-1.42963 -6.02905,-3.93945 -7.94725,-7.99025 -2.15684,-4.55472 -1.41793,-9.17389 2.09991,-13.12736 0.78309,-0.88006 2.41909,-2.13974 3.63557,-2.7993 2.02658,-1.09879 2.46143,-1.1992 5.19339,-1.1992 2.66598,0 3.2299,0.12223 5.32704,1.15465 2.93873,1.44673 5.75723,3.99631 7.10235,6.42468 0.89313,1.61239 1.03339,2.2278 1.02399,4.49266 -0.009,2.19636 -0.18969,3.00551 -1.1073,4.96162 -1.17886,2.51302 -3.32521,5.08911 -5.21144,6.25487 -2.07183,1.28046 -5.46769,2.43075 -7.12087,2.41207 -0.87766,-0.01 -2.22558,-0.27292 -2.99539,-0.58444 z"
       id="path1792"
       transform="scale(0.26458333)" />
    <path
       style="fill:#ffffff;stroke-width:0.349913"
       d="m 440.24253,392.94153 c -3.72069,-0.63925 -7.76839,-3.65169 -9.62445,-7.16287 -0.82148,-1.55402 -0.92487,-2.14064 -0.92511,-5.24869 -2.2e-4,-2.85724 0.13961,-3.80191 0.76228,-5.14974 1.06595,-2.30734 3.57744,-4.86507 5.96362,-6.07344 1.8704,-0.94717 2.30961,-1.02376 5.87068,-1.02376 3.72038,0 3.92303,0.0401 6.06259,1.20015 3.58255,1.94238 6.23325,5.66138 6.60544,9.26759 0.41619,4.03245 -1.90592,9.9132 -4.68899,11.87488 -2.96311,2.0886 -6.54002,2.91482 -10.02606,2.31588 z"
       id="path1831"
       transform="scale(0.26458333)" />
    <path
       style="fill:#ffffff;stroke-width:0.349913"
       d="m 433.19182,429.70056 c -5.50312,-1.82097 -9.31169,-7.28803 -8.82399,-12.66651 0.39032,-4.30452 3.60844,-9.01641 7.50218,-10.98452 1.78788,-0.90369 2.38578,-1.02187 5.17085,-1.02199 3.79823,-1.7e-4 5.55131,0.68039 8.2464,3.20133 3.06682,2.86864 4.47255,6.88433 4.07402,11.638 -0.26219,3.12744 -0.83557,4.40285 -2.88938,6.42707 -3.67371,3.62079 -8.72045,4.91538 -13.28008,3.40662 z"
       id="path1870"
       transform="scale(0.26458333)" />
  </g>
</svg>
