<?xml version="1.0" encoding="UTF-8" standalone="no"?>
<!-- Created with Inkscape (http://www.inkscape.org/) -->

<svg
   width="39.979317mm"
   height="30.102182mm"
   viewBox="0 0 39.979317 30.102183"
   version="1.1"
   id="svg5"
   inkscape:version="1.1 (c68e22c387, 2021-05-23)"
   sodipodi:docname="keys.svg"
   xmlns:inkscape="http://www.inkscape.org/namespaces/inkscape"
   xmlns:sodipodi="http://sodipodi.sourceforge.net/DTD/sodipodi-0.dtd"
   xmlns="http://www.w3.org/2000/svg"
   xmlns:svg="http://www.w3.org/2000/svg">
  <sodipodi:namedview
     id="namedview7"
     pagecolor="#505050"
     bordercolor="#ffffff"
     borderopacity="1"
     inkscape:pageshadow="0"
     inkscape:pageopacity="0"
     inkscape:pagecheckerboard="1"
     inkscape:document-units="mm"
     showgrid="false"
     fit-margin-top="0"
     fit-margin-left="0"
     fit-margin-right="0"
     fit-margin-bottom="0"
     inkscape:zoom="2.8578563"
     inkscape:cx="50.73733"
     inkscape:cy="74.356432"
     inkscape:window-width="1920"
     inkscape:window-height="991"
     inkscape:window-x="2391"
     inkscape:window-y="-9"
     inkscape:window-maximized="1"
     inkscape:current-layer="layer1" />
  <defs
     id="defs2" />
  <g
     inkscape:label="Layer 1"
     inkscape:groupmode="layer"
     id="layer1"
     transform="translate(-69.041272,-81.853523)">
    <path
       style="fill:#000000;stroke-width:0.352778"
       d="m 69.142697,111.57776 c -0.0937,-0.24427 -0.12895,-7.03216 -0.0782,-15.084179 l 0.0922,-14.640058 h 19.93195 19.931943 v 14.993058 14.993049 l -19.853693,0.0911 c -15.70022,0.0721 -19.88935,-0.002 -20.02413,-0.35301 z m 10.34121,-6.70549 0.0967,-5.909019 h -1.06024 -1.06024 l -0.0948,-8.0257 -0.0948,-8.025694 -1.84541,-0.1064 -1.84542,-0.106399 -0.0949,8.043903 -0.0949,8.0439 -1.67569,0.10752 -1.6757,0.10752 v 5.988129 5.98814 l 4.67431,-0.0984 4.6743,-0.0984 z m 8.89911,-8.025689 V 82.735468 h -3.35139 -3.35139 v 7.970523 c 0,7.67384 -0.0263,7.9774 -0.70556,8.15504 -0.67041,0.17531 -0.70555,0.48119 -0.70555,6.140579 v 5.95608 h 4.05694 4.05695 z m 9.525,8.113879 v -5.997209 h -1.05171 -1.05171 l -0.0948,-8.0257 -0.0948,-8.025694 -3.2632,-0.101433 -3.26319,-0.101433 v 14.12435 14.124349 h 4.40972 4.40972 z m 10.230563,0.0193 v -5.977889 l -1.6757,-0.10752 -1.6757,-0.10752 -0.0949,-8.0439 -0.0949,-8.043903 -1.84541,0.106399 -1.84541,0.1064 -0.0948,8.025694 -0.0948,8.0257 h -1.051713 -1.05171 v 5.762029 c 0,3.16912 0.10583,5.86787 0.23518,5.99722 0.12935,0.12935 2.272483,0.23519 4.762503,0.23519 h 4.52732 z"
       id="path5666" />
    <path
       style="fill:#ffffff;fill-opacity:1;stroke-width:0.349913"
       d="m 6.4733835,107.12009 c 0,-12.342677 0.039365,-22.453794 0.087478,-22.469145 0.048113,-0.01536 2.8430401,-0.212176 6.2109495,-0.437391 l 6.123471,-0.409481 0.218535,-1.790409 c 0.120194,-0.984724 0.336276,-14.663582 0.480182,-30.397458 l 0.261648,-28.607049 4.59355,0.226645 c 2.526453,0.124655 5.559992,0.317707 6.741198,0.429005 l 2.147649,0.20236 0.207359,3.55005 c 0.114048,1.952527 0.309486,15.556427 0.434309,30.230887 l 0.226949,26.680838 h 4.024705 4.024705 L 42.0317,101.21223 c -0.123404,9.2858 -0.319642,19.26515 -0.436082,22.17631 l -0.211711,5.29304 -6.870405,0.21576 c -3.778723,0.11867 -11.633591,0.31661 -17.455262,0.43988 l -10.5848565,0.22412 z"
       id="path5994"
       transform="matrix(0.26458333,0,0,0.26458333,68.350416,76.663911)" />
    <path
       style="fill:#ffffff;fill-opacity:1;stroke-width:0.349913"
       d="m 45.381384,108.21048 c 0.120214,-23.825203 0.07818,-23.413481 2.471228,-24.203262 0.746261,-0.246286 1.372897,-0.761798 1.641595,-1.350484 0.814942,-1.785437 1.046726,-9.337996 1.057449,-34.456271 l 0.01072,-25.10623 H 62.984272 75.40617 V 76.280951 129.46767 H 60.340148 45.274127 Z"
       id="path6033"
       transform="matrix(0.26458333,0,0,0.26458333,68.350416,76.663911)" />
    <path
       style="fill:#ffffff;fill-opacity:1;stroke-width:0.349913"
       d="M 78.555383,76.233115 V 22.998557 l 7.435643,0.225981 c 4.089604,0.124289 9.580876,0.322438 12.202828,0.44033 l 4.767186,0.21435 0.23001,28.562777 c 0.1265,15.709527 0.31859,29.310715 0.42686,30.224862 l 0.19685,1.662085 h 3.81621 3.8162 v 22.569368 22.56936 H 95.001276 78.555383 Z"
       id="path6072"
       transform="matrix(0.26458333,0,0,0.26458333,68.350416,76.663911)" />
    <path
       style="fill:#ffffff;fill-opacity:1;stroke-width:0.349913"
       d="m 119.91591,129.1064 c -2.36669,-0.14036 -4.39154,-0.34366 -4.49966,-0.45179 -0.47152,-0.47152 -0.78677,-11.11157 -0.80269,-27.09247 l -0.0172,-17.233198 h 3.97945 3.97944 l 0.22485,-26.855794 c 0.12367,-14.770687 0.31697,-28.374383 0.42956,-30.230436 l 0.20471,-3.374643 2.15186,-0.202811 c 1.18352,-0.111546 4.21895,-0.304801 6.74541,-0.429456 l 4.59355,-0.226645 0.24776,28.647894 c 0.13627,15.756341 0.35431,29.435199 0.48452,30.397458 l 0.23675,1.749564 6.11914,0.409481 c 3.36552,0.225215 6.1585,0.42204 6.20661,0.437391 0.0481,0.01535 0.0875,10.105393 0.0875,22.422315 v 22.39441 l -13.03424,-0.053 c -7.16884,-0.0292 -14.97063,-0.16787 -17.33732,-0.30823 z"
       id="path6111"
       transform="matrix(0.26458333,0,0,0.26458333,68.350416,76.663911)" />
  </g>
</svg>
