<?xml version="1.0" encoding="UTF-8" standalone="no"?>
<!-- Created with Inkscape (http://www.inkscape.org/) -->

<svg
   width="199.99998mm"
   height="66.867401mm"
   viewBox="0 0 199.99998 66.867401"
   version="1.1"
   id="svg5"
   inkscape:version="1.1.2 (b8e25be833, 2022-02-05)"
   sodipodi:docname="chorus-plus.svg"
   xmlns:inkscape="http://www.inkscape.org/namespaces/inkscape"
   xmlns:sodipodi="http://sodipodi.sourceforge.net/DTD/sodipodi-0.dtd"
   xmlns="http://www.w3.org/2000/svg"
   xmlns:svg="http://www.w3.org/2000/svg">
  <sodipodi:namedview
     id="namedview7"
     pagecolor="#505050"
     bordercolor="#ffffff"
     borderopacity="1"
     inkscape:pageshadow="0"
     inkscape:pageopacity="0"
     inkscape:pagecheckerboard="1"
     inkscape:document-units="mm"
     showgrid="false"
     fit-margin-top="0"
     fit-margin-left="0"
     fit-margin-right="0"
     fit-margin-bottom="0"
     inkscape:zoom="0.70710678"
     inkscape:cx="301.93459"
     inkscape:cy="183.14066"
     inkscape:window-width="2400"
     inkscape:window-height="1261"
     inkscape:window-x="-2409"
     inkscape:window-y="79"
     inkscape:window-maximized="1"
     inkscape:current-layer="layer1" />
  <defs
     id="defs2" />
  <g
     inkscape:label="Warstwa 1"
     inkscape:groupmode="layer"
     id="layer1"
     transform="translate(-4.8947309,-94.827137)">
    <path
       style="fill:#ffb300;stroke-width:0.021601;fill-opacity:1"
       d="m 60.263157,161.69271 c 0,-0.0192 0.57765,-0.78443 0.860265,-1.13973 2.341811,-2.9441 5.520822,-6.08752 8.860168,-8.76094 8.161135,-6.53369 17.577053,-10.77814 27.57364,-12.42946 0.4277,-0.0707 0.89914,-0.14719 1.04765,-0.17012 0.32288,-0.0498 0.27095,-0.0525 -0.47522,-0.0242 -5.827731,0.22037 -11.351072,0.64451 -20.82334,1.59907 -0.944503,0.0951 -2.903171,0.29411 -4.352597,0.44207 -12.662944,1.29263 -18.171114,1.72841 -24.430697,1.93286 -2.179183,0.0712 -6.02015,0.0829 -7.689953,0.0234 -3.750341,-0.13357 -6.528335,-0.37444 -9.385615,-0.81381 -9.220605,-1.41787 -15.870844,-4.69299 -20.281094,-9.98809 -1.611149,-1.93439 -2.929965,-4.15525 -3.983157,-6.70759 -1.0020288,-2.42836 -1.7778189,-5.39697 -2.207063,-8.44548 -0.1081186,-0.76773 -0.1081186,-0.76812 -0.00257,-0.41043 0.4040292,1.36925 1.0661274,2.87123 1.909183,4.331 1.566987,2.71331 3.719694,5.20184 6.344262,7.334 0.390528,0.31725 1.283536,0.98992 1.695674,1.27728 4.595701,3.20429 10.297609,5.34531 17.043172,6.39959 2.528767,0.39521 5.174998,0.62895 8.111166,0.71642 0.962848,0.0287 4.267586,0.0147 5.097834,-0.0216 2.393426,-0.10464 2.85405,-0.13618 6.501897,-0.44553 16.161348,-1.37055 26.038995,-2.1155 34.637154,-2.61228 12.847614,-0.7423 23.011274,-0.89407 31.818234,-0.4751 6.61292,0.3146 12.73204,0.96768 18.42563,1.96654 2.14516,0.37634 4.00815,0.75312 6.36148,1.28661 4.11549,0.93295 7.3989,1.53459 10.94089,2.00479 4.5719,0.60694 9.02861,0.82124 12.80938,0.61597 6.16458,-0.3347 11.17541,-1.69036 15.16388,-4.10251 1.97941,-1.19712 3.7592,-2.73516 5.23273,-4.52196 0.54929,-0.66609 1.25491,-1.6692 1.70477,-2.42351 0.90945,-1.52491 1.59739,-3.04318 2.23646,-4.93582 l 0.20423,-0.60482 -0.0116,0.46442 c -0.0296,1.18997 -0.24942,2.65325 -0.6182,4.11498 -0.89744,3.55751 -2.57537,6.7272 -5.00844,9.46122 -0.33989,0.38195 -1.34763,1.3874 -1.7301,1.72617 -3.30204,2.92482 -7.35609,4.96007 -12.39191,6.22114 -3.00379,0.75221 -6.10047,1.1715 -10.0201,1.35676 -0.78924,0.0373 -4.47895,0.0373 -5.34624,0 -3.40618,-0.14645 -6.31981,-0.41814 -9.79164,-0.91301 -1.75945,-0.25079 -2.93192,-0.44455 -5.28584,-0.87351 -1.43039,-0.26066 -2.50531,-0.44452 -3.53177,-0.60413 -4.37573,-0.68035 -8.67433,-1.11132 -12.92817,-1.29615 -1.83349,-0.0797 -2.26299,-0.0874 -4.82782,-0.0874 -2.7656,0 -3.53757,0.0176 -5.70266,0.13067 -12.47636,0.65106 -24.608406,3.52577 -35.641597,8.44531 -5.545586,2.4727 -10.754728,5.44029 -15.120676,8.61406 -1.04184,0.75736 -2.430688,1.84819 -2.943132,2.31162 -0.02677,0.0242 -0.04865,0.0382 -0.04865,0.0313 z m 91.048093,-33.66208 c -0.54421,-0.0296 -0.9411,-0.0574 -1.22045,-0.0856 -3.23639,-0.32645 -5.78647,-1.51663 -7.87099,-3.67355 -0.1915,-0.19815 -0.34818,-0.36962 -0.34818,-0.38103 0,-0.0116 0.21665,-0.31369 0.48145,-0.67176 0.2648,-0.35807 0.81644,-1.10459 1.22585,-1.65895 l 0.74441,-1.00793 0.33481,0.32849 c 0.18415,0.18068 0.40285,0.38738 0.48603,0.45934 0.93,0.80483 2.19306,1.50398 3.48855,1.93104 1.70099,0.56073 3.57204,0.74482 5.04442,0.4963 1.18219,-0.19954 2.12915,-0.63297 2.70226,-1.23684 0.46052,-0.48522 0.68946,-1.11224 0.6488,-1.77688 -0.0373,-0.60979 -0.23466,-1.05591 -0.65004,-1.46951 -0.25814,-0.25704 -0.4576,-0.39395 -0.86553,-0.59409 -0.81709,-0.4009 -1.93317,-0.6548 -3.65056,-0.8305 -0.66474,-0.068 -1.2471,-0.14332 -1.75478,-0.22696 -4.2843,-0.70582 -6.70466,-2.41603 -7.31555,-5.16913 -0.10014,-0.45123 -0.12434,-0.67353 -0.13608,-1.24671 -0.0116,-0.58861 0.0139,-0.93634 0.10375,-1.39164 0.37411,-1.89545 1.64236,-3.41133 3.68075,-4.39943 1.29179,-0.62619 2.75065,-1.00124 4.46061,-1.14675 0.42956,-0.0366 1.95769,-0.0363 2.44091,2.9e-4 0.53257,0.0404 1.11045,0.10748 1.52735,0.17711 1.89137,0.31611 3.49061,0.99387 4.98534,2.11282 0.37501,0.28074 0.8332,0.6746 0.81643,0.70182 -0.0293,0.0476 -2.62272,3.08173 -2.63407,3.08173 -0.006,0 -0.0956,-0.0741 -0.1985,-0.16475 -0.27038,-0.23801 -0.76355,-0.60193 -1.05726,-0.78014 -1.3188,-0.80024 -2.76454,-1.14871 -4.77143,-1.15009 -2.59598,-10e-4 -4.2407,0.74813 -4.63133,2.11164 -0.13198,0.46068 -0.0866,1.01939 0.11893,1.46419 0.2158,0.46707 0.66754,0.89758 1.24752,1.18886 0.77394,0.3887 1.90864,0.66094 3.32259,0.79718 1.60644,0.15479 2.31121,0.24881 3.24041,0.43232 3.19886,0.63176 5.17059,1.96498 5.98958,4.04994 0.29614,0.75394 0.4324,1.54097 0.4338,2.50572 8.5e-4,0.66628 -0.0561,1.15131 -0.20165,1.71239 -0.54883,2.11643 -2.13339,3.76301 -4.51552,4.69225 -1.07253,0.41839 -2.23725,0.67074 -3.63976,0.78856 -0.27528,0.0232 -1.78621,0.0453 -2.06289,0.0303 z m -127.261015,-0.0542 c -5.256215,-0.22141 -9.495085,-2.18153 -12.299979,-5.68767 -1.851726,-2.3147 -3.034261,-5.27608 -3.403576,-8.52353 -0.107733,-0.9467 -0.151727,-2.39546 -0.100396,-3.30049 0.2444,-4.30792 1.859783,-8.14917 4.601505,-10.942017 2.521907,-2.56892 5.862825,-4.1228 9.80805,-4.56174 0.657027,-0.0731 0.931739,-0.0924 1.723348,-0.12151 2.24556,-0.0824 4.388524,0.24804 6.419327,0.98999 2.10045,0.76739 4.078507,2.01011 5.741848,3.60735 l 0.243499,0.23381 -1.700411,1.630867 c -0.935226,0.89699 -1.713462,1.6341 -1.729409,1.63803 -0.01596,0.004 -0.118802,-0.0786 -0.228581,-0.18361 -1.277783,-1.22133 -3.083403,-2.20663 -4.919645,-2.68456 -1.629258,-0.424067 -3.3741,-0.510697 -5.215155,-0.258917 -1.504523,0.205737 -3.007386,0.707217 -4.233799,1.412737 -1.437721,0.82708 -2.692026,2.03542 -3.591844,3.46023 -1.67145,2.64664 -2.260569,6.07179 -1.62299,9.43628 0.545163,2.8768 1.98511,5.29123 4.090773,6.85916 1.623299,1.20874 3.601703,1.92767 5.908686,2.14714 2.058,0.19577 3.860416,-0.0207 5.674042,-0.68165 1.578571,-0.57525 2.947212,-1.40344 4.123247,-2.49507 l 0.238865,-0.22172 1.758358,1.75846 1.758357,1.75846 -0.05316,0.057 c -0.106702,0.11468 -0.67717,0.6271 -0.966091,0.86783 -2.181578,1.81764 -4.813328,3.02999 -7.673427,3.53485 -1.405415,0.24809 -2.808576,0.33523 -4.351481,0.27023 z m 54.001319,-0.19416 c -2.951132,-0.21746 -5.458177,-1.3113 -7.344386,-3.20444 -1.699462,-1.70568 -2.772836,-3.93866 -3.141598,-6.5356 -0.155292,-1.09355 -0.170828,-2.3562 -0.04286,-3.4884 0.567134,-5.02071 3.889824,-8.81192 8.649624,-9.86927 2.248864,-0.49957 4.726016,-0.38864 6.847508,0.30662 1.372735,0.44989 2.586479,1.12565 3.736969,2.08057 0.304413,0.25267 0.999027,0.95138 1.264199,1.27164 0.568846,0.68703 0.986504,1.31632 1.383491,2.08449 1.068967,2.06848 1.511899,4.55331 1.261478,7.07688 -0.437622,4.4101 -2.98,7.9029 -6.876084,9.44659 -1.152547,0.45666 -2.413293,0.73331 -3.794189,0.8326 -0.349562,0.0251 -1.594828,0.0241 -1.944087,-0.001 z m 1.987289,-4.41374 c 1.815987,-0.25128 3.275612,-1.0508 4.340856,-2.37776 1.337646,-1.66631 1.892564,-4.10491 1.457421,-6.4047 -0.395879,-2.09226 -1.611016,-3.89586 -3.314165,-4.91911 -1.46324,-0.87912 -3.223367,-1.15774 -5.011426,-0.79327 -1.730612,0.35276 -3.264741,1.43577 -4.205767,2.96906 -0.652544,1.06324 -1.035891,2.28074 -1.14261,3.62896 -0.03484,0.44023 -0.01223,1.32108 0.04493,1.74968 0.08752,0.65636 0.240258,1.28723 0.446344,1.84374 0.123873,0.33449 0.459578,1.0164 0.644929,1.31 0.633332,1.00324 1.495955,1.79534 2.515157,2.30953 0.784931,0.39601 1.572975,0.62122 2.496256,0.71342 0.312897,0.0313 1.426295,0.0116 1.728079,-0.0296 z m 44.109187,4.32858 c -1.46447,-0.11777 -2.80616,-0.51183 -3.95298,-1.16096 -0.3019,-0.1709 -0.83258,-0.53325 -1.13405,-0.77435 -0.34201,-0.27352 -0.92917,-0.85212 -1.19187,-1.17448 -1.26747,-1.55535 -2.02457,-3.44171 -2.30666,-5.7472 -0.0989,-0.8081 -0.0947,-0.50553 -0.10265,-7.46719 l -0.007,-6.5505 h 2.3547 2.35469 l 0.007,6.42088 c 0.008,7.00333 -0.001,6.49747 0.12446,7.20933 0.35041,1.98548 1.40515,3.48873 3.01243,4.29343 0.3899,0.19521 1.03328,0.40685 1.52288,0.50095 0.63345,0.12176 1.51136,0.1642 2.09887,0.10156 1.60561,-0.17141 2.98151,-0.90249 4.00677,-2.129 0.91682,-1.09679 1.46151,-2.48941 1.58403,-4.04987 0.014,-0.17885 0.0219,-2.43824 0.0219,-6.31288 v -6.03434 h 2.35452 2.3545 v 11.28651 11.28651 h -2.12471 -2.12471 l -0.013,-0.13501 c -0.008,-0.0743 -0.0682,-0.81543 -0.13571,-1.64707 -0.0676,-0.83164 -0.12588,-1.51585 -0.12983,-1.52047 -0.004,-0.005 -0.053,0.044 -0.10915,0.10799 -0.0561,0.064 -0.26781,0.28506 -0.47042,0.49118 -1.76883,1.79961 -3.60369,2.70991 -5.99541,2.9744 -0.3675,0.0407 -1.63249,0.06 -1.9981,0.0306 z M 41.470304,111.36753 V 95.382823 h 2.354464 2.354477 l 0.0051,6.387607 0.0051,6.38761 0.118802,-0.16095 c 0.350922,-0.47546 0.884552,-1.05522 1.306859,-1.41982 1.425763,-1.23096 3.052937,-1.88259 5.087035,-2.03724 0.434496,-0.0331 1.644459,-0.014 2.08449,0.0328 2.554355,0.27171 4.48641,1.26901 5.848589,3.01893 1.155634,1.48459 1.846487,3.47532 2.06741,5.95743 0.06037,0.67747 0.06551,1.271 0.06551,7.42533 v 6.37769 H 60.414126 58.0601 l -0.0077,-6.49649 c -0.0077,-7.08016 7.72e-4,-6.57332 -0.124337,-7.31564 -0.386498,-2.2929 -1.635668,-3.81313 -3.603067,-4.38487 -0.543348,-0.15789 -1.032341,-0.22709 -1.721584,-0.2436 -0.55259,-0.0133 -0.845463,0.005 -1.284231,0.0819 -1.158144,0.20174 -2.20714,0.72763 -3.052306,1.53016 -0.567173,0.53856 -0.970417,1.09137 -1.332473,1.82672 -0.442308,0.89831 -0.668251,1.76625 -0.733843,2.81894 -0.01429,0.22925 -0.02227,2.46618 -0.02227,6.26967 v 5.91327 h -2.354422 -2.354503 v -15.98474 z m 54.240044,4.71982 v -11.26491 h 2.192082 2.19209 l 0.0103,0.0487 c 0.006,0.0268 0.0742,0.65128 0.15225,1.38786 0.0781,0.7366 0.1478,1.38164 0.15494,1.43342 l 0.013,0.0942 0.0437,-0.0726 c 0.14321,-0.23789 0.46764,-0.70947 0.62205,-0.9042 0.23265,-0.29337 0.72676,-0.78919 1.00721,-1.01068 1.20418,-0.95099 2.62506,-1.40253 4.60734,-1.46417 1.91196,-0.0595 3.81768,0.44912 5.2374,1.39771 0.35709,0.23858 0.67412,0.49215 0.66564,0.53239 -0.006,0.0283 -2.1019,4.04794 -2.12368,4.07288 -0.009,0.0103 -0.1265,-0.0645 -0.26192,-0.16514 -0.90822,-0.67539 -1.72976,-1.00253 -2.86941,-1.1426 -0.35004,-0.043 -1.40869,-0.0351 -1.76048,0.013 -1.36235,0.18676 -2.44319,0.66037 -3.32607,1.45749 -0.86339,0.77951 -1.44132,1.84028 -1.69622,3.11339 -0.14952,0.74675 -0.13868,0.20248 -0.14574,7.31733 l -0.006,6.42089 h -2.35402 -2.354021 z m 82.926142,6.35074 v -4.91418 l -4.50921,-0.005 -4.5092,-0.005 -0.005,-2.34909 -0.005,-2.34911 h 4.51465 4.51464 l 0.005,-4.304 0.005,-4.304 2.55432,-0.005 2.55432,-0.005 v 4.30949 4.30948 h 4.00698 4.00698 v 2.35445 2.35445 l -4.00158,0.005 -4.00158,0.005 -0.005,4.90882 -0.005,4.90882 h -2.55967 -2.55967 z m 17.30237,-7.58602 v -2.45919 l 0.19981,-0.0832 c 0.99376,-0.41329 1.91977,-1.18396 2.53274,-2.10782 0.5306,-0.79977 0.8752,-1.72519 1.02808,-2.76094 0.0569,-0.38553 0.0786,-1.19815 0.0429,-1.60334 -0.10297,-1.16543 -0.47163,-2.2507 -1.07143,-3.15374 -0.25321,-0.38122 -0.42863,-0.59427 -0.76485,-0.92893 -0.46396,-0.46181 -0.91402,-0.78214 -1.50274,-1.06954 -0.79064,-0.386 -1.54818,-0.57658 -2.52731,-0.63582 -0.23899,-0.0144 -2.96371,-0.0223 -7.80335,-0.0224 l -7.43613,-2.1e-4 v -2.318577 -2.31856 l 1.67947,-0.0143 c 0.92373,-0.008 4.39635,-0.0205 7.71696,-0.0281 4.54937,-0.0103 6.12532,-0.008 6.39388,0.0116 2.68577,0.19243 4.85689,1.01848 6.6963,2.54773 0.31779,0.26421 0.94556,0.89242 1.21195,1.21281 0.88308,1.062097 1.54337,2.255067 1.9867,3.589527 0.24193,0.72827 0.44267,1.67783 0.53116,2.51274 0.0552,0.52058 0.0557,1.85588 0.001,2.3653 -0.34427,3.20381 -1.8242,5.92036 -4.19599,7.70213 -1.33049,0.99951 -2.80048,1.63432 -4.64887,2.00757 l -0.0702,0.0142 v -2.45917 z"
       id="path21" />
  </g>
</svg>
